<?xml version="1.0" encoding="UTF-8"?>
<svg xmlns="http://www.w3.org/2000/svg" xmlns:xlink="http://www.w3.org/1999/xlink" width="16pt" height="16pt" viewBox="0 0 16 16" version="1.1">
<g id="surface1">
<path style=" stroke:none;fill-rule:nonzero;fill:rgb(22.352941%,59.215686%,29.019608%);fill-opacity:1;" d="M 13.394531 8.011719 C 13.394531 11.035156 10.945312 13.484375 7.925781 13.484375 C 4.90625 13.484375 2.457031 11.035156 2.457031 8.011719 C 2.457031 4.992188 4.90625 2.542969 7.925781 2.542969 C 10.945312 2.542969 13.394531 4.992188 13.394531 8.011719 "/>
<path style=" stroke:none;fill-rule:nonzero;fill:rgb(60%,80%,40.392157%);fill-opacity:1;" d="M 6.015625 2.09375 C 6.621094 1.898438 7.269531 1.792969 7.941406 1.789062 L 7.941406 0.5 C 7.109375 0.5 6.40625 0.613281 5.621094 0.867188 C 5.597656 0.875 5.578125 0.882812 5.558594 0.890625 C 5.578125 0.882812 5.597656 0.875 5.617188 0.867188 Z M 6.015625 2.09375 "/>
<path style=" stroke:none;fill-rule:nonzero;fill:rgb(22.352941%,59.215686%,29.019608%);fill-opacity:1;" d="M 13.738281 3.234375 C 13.832031 3.351562 13.925781 3.472656 14.019531 3.597656 L 12.976562 4.355469 C 13.722656 5.382812 14.164062 6.648438 14.164062 8.011719 L 15.453125 8.011719 L 15.453125 8.015625 C 15.453125 8.144531 15.449219 8.269531 15.445312 8.398438 C 15.449219 8.269531 15.453125 8.144531 15.453125 8.011719 C 15.453125 6.199219 14.808594 4.53125 13.738281 3.234375 "/>
<path style=" stroke:none;fill-rule:nonzero;fill:rgb(22.352941%,59.215686%,29.019608%);fill-opacity:1;" d="M 7.941406 14.238281 C 4.503906 14.238281 1.71875 11.453125 1.71875 8.011719 C 1.71875 5.25 3.519531 2.90625 6.015625 2.097656 L 5.621094 0.867188 C 5.597656 0.875 5.578125 0.882812 5.558594 0.890625 C 5.464844 0.921875 5.371094 0.953125 5.28125 0.984375 C 5.257812 0.996094 5.230469 1.007812 5.207031 1.015625 C 2.378906 2.109375 0.550781 4.671875 0.429688 7.707031 C 0.429688 7.777344 0.429688 7.851562 0.425781 7.921875 C 0.425781 7.953125 0.425781 7.984375 0.425781 8.015625 C 0.425781 8.019531 0.425781 8.027344 0.425781 8.035156 C 0.425781 8.132812 0.429688 8.234375 0.433594 8.332031 C 0.433594 8.363281 0.4375 8.394531 0.4375 8.425781 C 0.441406 8.5 0.449219 8.582031 0.457031 8.660156 C 0.460938 8.710938 0.464844 8.765625 0.46875 8.820312 C 0.472656 8.863281 0.480469 8.90625 0.488281 8.949219 C 0.496094 9.042969 0.507812 9.128906 0.523438 9.21875 C 0.523438 9.222656 0.523438 9.226562 0.523438 9.230469 C 0.628906 9.871094 0.816406 10.484375 1.070312 11.058594 C 1.101562 11.128906 1.132812 11.199219 1.164062 11.269531 C 1.164062 11.273438 1.167969 11.273438 1.167969 11.277344 C 2.273438 13.570312 4.511719 15.214844 7.152344 15.488281 C 7.167969 15.488281 7.183594 15.492188 7.199219 15.492188 C 7.285156 15.503906 7.375 15.507812 7.464844 15.511719 C 7.511719 15.515625 7.558594 15.519531 7.601562 15.523438 C 7.664062 15.523438 7.722656 15.527344 7.78125 15.527344 C 7.835938 15.527344 7.886719 15.53125 7.9375 15.53125 C 9.589844 15.53125 11.117188 14.996094 12.355469 14.09375 L 11.597656 13.050781 C 10.570312 13.796875 9.308594 14.238281 7.941406 14.238281 "/>
<path style=" stroke:none;fill-rule:nonzero;fill:rgb(43.529412%,70.980392%,34.901961%);fill-opacity:1;" d="M 7.941406 1.789062 C 10.011719 1.789062 11.84375 2.800781 12.972656 4.355469 L 14.015625 3.597656 C 13.925781 3.472656 13.832031 3.351562 13.734375 3.234375 C 12.371094 1.558594 10.503906 0.613281 8.34375 0.511719 C 8.210938 0.503906 8.074219 0.5 7.941406 0.5 Z M 7.941406 1.789062 "/>
<path style=" stroke:none;fill-rule:nonzero;fill:rgb(43.529412%,70.980392%,34.901961%);fill-opacity:1;" d="M 15.453125 8.011719 L 14.164062 8.011719 C 14.164062 9.308594 13.769531 10.511719 13.089844 11.503906 C 12.683594 12.101562 12.179688 12.625 11.597656 13.050781 L 12.355469 14.09375 C 12.476562 14.007812 12.59375 13.917969 12.703125 13.828125 C 14.292969 12.539062 15.226562 10.800781 15.414062 8.789062 C 15.414062 8.777344 15.414062 8.761719 15.417969 8.75 C 15.425781 8.644531 15.433594 8.542969 15.441406 8.4375 C 15.445312 8.429688 15.441406 8.425781 15.445312 8.421875 C 15.445312 8.414062 15.445312 8.40625 15.445312 8.398438 C 15.449219 8.273438 15.453125 8.144531 15.453125 8.015625 Z M 15.453125 8.011719 "/>
<path style=" stroke:none;fill-rule:nonzero;fill:rgb(100%,100%,100%);fill-opacity:1;" d="M 7.941406 12.0625 C 7.90625 12.0625 7.871094 12.050781 7.84375 12.035156 C 7.730469 11.976562 5.121094 10.554688 5.121094 8.722656 L 5.121094 5.0625 C 5.121094 4.964844 5.191406 4.882812 5.285156 4.863281 L 7.898438 4.339844 C 7.925781 4.335938 7.953125 4.335938 7.980469 4.339844 L 10.59375 4.863281 C 10.6875 4.882812 10.757812 4.964844 10.757812 5.0625 L 10.757812 8.722656 C 10.757812 10.554688 8.148438 11.976562 8.035156 12.035156 C 8.007812 12.050781 7.972656 12.0625 7.941406 12.0625 Z M 5.53125 5.230469 L 5.53125 8.722656 C 5.53125 10.128906 7.480469 11.351562 7.941406 11.621094 C 8.398438 11.351562 10.347656 10.128906 10.347656 8.722656 L 10.347656 5.230469 L 7.941406 4.746094 Z M 5.53125 5.230469 "/>
<path style=" stroke:none;fill-rule:nonzero;fill:rgb(100%,100%,100%);fill-opacity:1;" d="M 7.570312 8.621094 C 7.515625 8.621094 7.464844 8.597656 7.425781 8.558594 L 6.6875 7.820312 C 6.609375 7.738281 6.609375 7.609375 6.6875 7.53125 C 6.765625 7.453125 6.894531 7.449219 6.976562 7.53125 L 7.570312 8.125 L 8.902344 6.792969 C 8.984375 6.710938 9.113281 6.710938 9.191406 6.792969 C 9.273438 6.871094 9.273438 7 9.191406 7.082031 L 7.714844 8.558594 C 7.675781 8.597656 7.625 8.621094 7.570312 8.621094 Z M 7.570312 8.621094 "/>
</g>
</svg>
