<svg xmlns="http://www.w3.org/2000/svg" id="svg_resize" viewBox="0 0 16 16" width="16" height="16" xmlns:xlink="http://www.w3.org/1999/xlink" version="1.1">
<g id="surface1">
<path style=" stroke:none;fill-rule:nonzero;fill:rgb(22.352941%,59.215686%,29.019608%);fill-opacity:1;" d="M 13.3945 8.01172 C 13.3945 11.0352 10.9453 13.4844 7.92578 13.4844 C 4.90625 13.4844 2.45703 11.0352 2.45703 8.01172 C 2.45703 4.99219 4.90625 2.54297 7.92578 2.54297 C 10.9453 2.54297 13.3945 4.99219 13.3945 8.01172" />
<path style=" stroke:none;fill-rule:nonzero;fill:rgb(60%,80%,40.392157%);fill-opacity:1;" d="M 6.01563 2.09375 C 6.62109 1.89844 7.26953 1.79297 7.94141 1.78906 L 7.94141 0.5 C 7.10938 0.5 6.40625 0.613281 5.62109 0.867188 C 5.59766 0.875 5.57813 0.882812 5.55859 0.890625 C 5.57813 0.882812 5.59766 0.875 5.61719 0.867188 Z M 6.01563 2.09375" />
<path style=" stroke:none;fill-rule:nonzero;fill:rgb(22.352941%,59.215686%,29.019608%);fill-opacity:1;" d="M 13.7383 3.23438 C 13.832 3.35156 13.9258 3.47266 14.0195 3.59766 L 12.9766 4.35547 C 13.7227 5.38281 14.1641 6.64844 14.1641 8.01172 L 15.4531 8.01172 L 15.4531 8.01563 C 15.4531 8.14453 15.4492 8.26953 15.4453 8.39844 C 15.4492 8.26953 15.4531 8.14453 15.4531 8.01172 C 15.4531 6.19922 14.8086 4.53125 13.7383 3.23438" />
<path style=" stroke:none;fill-rule:nonzero;fill:rgb(22.352941%,59.215686%,29.019608%);fill-opacity:1;" d="M 7.94141 14.2383 C 4.50391 14.2383 1.71875 11.4531 1.71875 8.01172 C 1.71875 5.25 3.51953 2.90625 6.01563 2.09766 L 5.62109 0.867188 C 5.59766 0.875 5.57813 0.882812 5.55859 0.890625 C 5.46484 0.921875 5.37109 0.953125 5.28125 0.984375 C 5.25781 0.996094 5.23047 1.00781 5.20703 1.01563 C 2.37891 2.10938 0.550781 4.67188 0.429688 7.70703 C 0.429688 7.77734 0.429688 7.85156 0.425781 7.92188 C 0.425781 7.95313 0.425781 7.98438 0.425781 8.01563 C 0.425781 8.01953 0.425781 8.02734 0.425781 8.03516 C 0.425781 8.13281 0.429688 8.23438 0.433594 8.33203 C 0.433594 8.36328 0.4375 8.39453 0.4375 8.42578 C 0.441406 8.5 0.449219 8.58203 0.457031 8.66016 C 0.460938 8.71094 0.464844 8.76563 0.46875 8.82031 C 0.472656 8.86328 0.480469 8.90625 0.488281 8.94922 C 0.496094 9.04297 0.507812 9.12891 0.523438 9.21875 C 0.523438 9.22266 0.523438 9.22656 0.523438 9.23047 C 0.628906 9.87109 0.816406 10.4844 1.07031 11.0586 C 1.10156 11.1289 1.13281 11.1992 1.16406 11.2695 C 1.16406 11.2734 1.16797 11.2734 1.16797 11.2773 C 2.27344 13.5703 4.51172 15.2148 7.15234 15.4883 C 7.16797 15.4883 7.18359 15.4922 7.19922 15.4922 C 7.28516 15.5039 7.375 15.5078 7.46484 15.5117 C 7.51172 15.5156 7.55859 15.5195 7.60156 15.5234 C 7.66406 15.5234 7.72266 15.5273 7.78125 15.5273 C 7.83594 15.5273 7.88672 15.5313 7.9375 15.5313 C 9.58984 15.5313 11.1172 14.9961 12.3555 14.0938 L 11.5977 13.0508 C 10.5703 13.7969 9.30859 14.2383 7.94141 14.2383" />
<path style=" stroke:none;fill-rule:nonzero;fill:rgb(43.529412%,70.980392%,34.901961%);fill-opacity:1;" d="M 7.94141 1.78906 C 10.0117 1.78906 11.8438 2.80078 12.9727 4.35547 L 14.0156 3.59766 C 13.9258 3.47266 13.832 3.35156 13.7344 3.23438 C 12.3711 1.55859 10.5039 0.613281 8.34375 0.511719 C 8.21094 0.503906 8.07422 0.5 7.94141 0.5 Z M 7.94141 1.78906" />
<path style=" stroke:none;fill-rule:nonzero;fill:rgb(43.529412%,70.980392%,34.901961%);fill-opacity:1;" d="M 15.4531 8.01172 L 14.1641 8.01172 C 14.1641 9.30859 13.7695 10.5117 13.0898 11.5039 C 12.6836 12.1016 12.1797 12.625 11.5977 13.0508 L 12.3555 14.0938 C 12.4766 14.0078 12.5938 13.918 12.7031 13.8281 C 14.293 12.5391 15.2266 10.8008 15.4141 8.78906 C 15.4141 8.77734 15.4141 8.76172 15.418 8.75 C 15.4258 8.64453 15.4336 8.54297 15.4414 8.4375 C 15.4453 8.42969 15.4414 8.42578 15.4453 8.42188 C 15.4453 8.41406 15.4453 8.40625 15.4453 8.39844 C 15.4492 8.27344 15.4531 8.14453 15.4531 8.01563 Z M 15.4531 8.01172" />
<path style=" stroke:none;fill-rule:nonzero;fill:rgb(100%,100%,100%);fill-opacity:1;" d="M 7.94141 12.0625 C 7.90625 12.0625 7.87109 12.0508 7.84375 12.0352 C 7.73047 11.9766 5.12109 10.5547 5.12109 8.72266 L 5.12109 5.0625 C 5.12109 4.96484 5.19141 4.88281 5.28516 4.86328 L 7.89844 4.33984 C 7.92578 4.33594 7.95313 4.33594 7.98047 4.33984 L 10.5938 4.86328 C 10.6875 4.88281 10.7578 4.96484 10.7578 5.0625 L 10.7578 8.72266 C 10.7578 10.5547 8.14844 11.9766 8.03516 12.0352 C 8.00781 12.0508 7.97266 12.0625 7.94141 12.0625 Z M 5.53125 5.23047 L 5.53125 8.72266 C 5.53125 10.1289 7.48047 11.3516 7.94141 11.6211 C 8.39844 11.3516 10.3477 10.1289 10.3477 8.72266 L 10.3477 5.23047 L 7.94141 4.74609 Z M 5.53125 5.23047" />
<path style=" stroke:none;fill-rule:nonzero;fill:rgb(100%,100%,100%);fill-opacity:1;" d="M 7.57031 8.62109 C 7.51563 8.62109 7.46484 8.59766 7.42578 8.55859 L 6.6875 7.82031 C 6.60938 7.73828 6.60938 7.60938 6.6875 7.53125 C 6.76563 7.45313 6.89453 7.44922 6.97656 7.53125 L 7.57031 8.125 L 8.90234 6.79297 C 8.98438 6.71094 9.11328 6.71094 9.19141 6.79297 C 9.27344 6.87109 9.27344 7 9.19141 7.08203 L 7.71484 8.55859 C 7.67578 8.59766 7.625 8.62109 7.57031 8.62109 Z M 7.57031 8.62109" />
</g>
</svg>