<svg width="24" height="19" viewBox="0 0 24 19" fill="none" xmlns="http://www.w3.org/2000/svg">
<path d="M20.471 12.082H16.619C16.337 12.082 16.108 11.853 16.108 11.571C16.108 11.289 16.337 11.06 16.619 11.06H20.41C20.783 10.964 23.025 10.308 22.976 8.23497C22.955 7.29497 22.652 6.56997 22.078 6.08197C20.849 5.03897 18.773 5.31597 18.752 5.31797C18.616 5.33797 18.479 5.29997 18.369 5.21597C18.261 5.13197 18.189 5.00897 18.174 4.87197C18.156 4.72697 17.705 1.29797 14.823 1.03597C11.995 0.780975 11.251 4.00897 11.221 4.14697C11.16 4.42097 10.888 4.59697 10.612 4.53597C10.337 4.47597 10.162 4.20597 10.221 3.93097C10.539 2.45797 11.931 -0.255025 14.915 0.0189746C17.592 0.260975 18.769 2.67897 19.106 4.26697C19.924 4.23397 21.573 4.31197 22.739 5.30297C23.546 5.98797 23.969 6.96597 23.998 8.21097C24.056 10.658 21.786 11.806 20.578 12.069C20.543 12.078 20.507 12.082 20.471 12.082Z" fill="#464646"/>
<path d="M4.90994 7.73001H2.90394C2.62094 7.73001 2.39294 7.50101 2.39294 7.21801C2.39294 6.93701 2.62194 6.70801 2.90394 6.70801H4.90994C5.19294 6.70801 5.42194 6.93701 5.42194 7.21801C5.42094 7.50101 5.19194 7.73001 4.90994 7.73001Z" fill="#464646"/>
<path d="M5.94105 15.765H3.93605C3.65405 15.765 3.42505 15.536 3.42505 15.254C3.42505 14.972 3.65405 14.743 3.93605 14.743H5.94205C6.22505 14.743 6.45405 14.972 6.45405 15.254C6.45405 15.536 6.22405 15.765 5.94105 15.765Z" fill="#464646"/>
<path d="M19.04 15.765H15.883C15.6 15.765 15.371 15.536 15.371 15.254C15.371 14.972 15.6 14.743 15.883 14.743H19.04C19.322 14.743 19.551 14.972 19.551 15.254C19.551 15.536 19.322 15.765 19.04 15.765Z" fill="#464646"/>
<path d="M4.91 12.088H0.511C0.229 12.088 0 11.859 0 11.578C0 11.295 0.229 11.066 0.511 11.066H4.91C5.193 11.066 5.422 11.295 5.422 11.578C5.421 11.859 5.192 12.088 4.91 12.088Z" fill="#464646"/>
<path d="M10.831 18.445C10.831 18.445 15.573 15.824 15.573 12.588V6.03299L10.832 5.19299L6.08704 6.03299V12.588C6.08604 15.824 10.831 18.445 10.831 18.445Z" fill="#464646"/>
<path d="M11.9817 9.35265L10.829 10.5053L9.67639 9.35166L9.67638 9.35165C9.53985 9.21512 9.31819 9.21512 9.18167 9.35165C9.04514 9.48818 9.04514 9.70983 9.18167 9.84636L10.3343 10.999L9.18167 12.1516C9.04514 12.2882 9.04514 12.5098 9.18167 12.6464L9.18197 12.6467C9.25036 12.7139 9.33997 12.749 9.42902 12.749C9.51808 12.749 9.60768 12.7139 9.67608 12.6467L9.67638 12.6464L10.829 11.4937L11.9817 12.6464L11.982 12.6467C12.0507 12.7142 12.1404 12.748 12.229 12.748C12.3179 12.748 12.4064 12.714 12.4758 12.647L12.4758 12.647L12.4764 12.6464C12.6129 12.5098 12.6129 12.2882 12.4764 12.1516L12.4764 12.1516L11.3237 11L12.4764 9.84736C12.6129 9.71083 12.6129 9.48918 12.4764 9.35265L12.4762 9.3525C12.3388 9.21626 12.1183 9.21604 11.9817 9.35265Z" fill="#F0F0F0" stroke="#F0F0F0" stroke-width="0.1"/>
</svg>
