<svg width="24" height="19" viewBox="0 0 24 19" fill="none" xmlns="http://www.w3.org/2000/svg">
<path d="M20.4704 12.0821H16.6198C16.3371 12.0821 16.1083 11.8533 16.1083 11.5711C16.1083 11.2888 16.3371 11.0601 16.6198 11.0601H20.4097C20.7834 10.9652 23.0256 10.3081 22.9771 8.23547C22.9551 7.29426 22.653 6.56983 22.0784 6.08249C20.8499 5.03922 18.7732 5.31599 18.7524 5.31886C18.6161 5.33774 18.4784 5.30141 18.3693 5.21728C18.2605 5.13339 18.19 5.00911 18.1737 4.87287C18.156 4.7278 17.7053 1.29875 14.8234 1.03656C11.9958 0.782017 11.2512 4.01029 11.221 4.1482C11.1603 4.42306 10.8886 4.59849 10.6124 4.53778C10.3369 4.47755 10.1619 4.20652 10.2217 3.93118C10.5402 2.45937 11.9322 -0.253603 14.9157 0.019105C17.5926 0.262176 18.7701 2.68022 19.1078 4.26723C19.9257 4.23424 21.5738 4.31288 22.7398 5.30357C23.5462 5.98784 23.97 6.96658 23.9989 8.21181C24.0563 10.6592 21.7869 11.8062 20.579 12.0706C20.5436 12.0782 20.5068 12.0821 20.4704 12.0821Z" fill="#464646"/>
<path d="M4.9095 7.73068H2.90361C2.62119 7.73068 2.39233 7.50195 2.39233 7.21944C2.39233 6.93741 2.62119 6.70868 2.90361 6.70868H4.90974C5.19216 6.70868 5.42126 6.93741 5.42126 7.21944C5.42102 7.50195 5.19192 7.73068 4.9095 7.73068Z" fill="#464646"/>
<path d="M5.94137 15.7656H3.93572C3.65329 15.7656 3.42444 15.5369 3.42444 15.2547C3.42444 14.9724 3.65329 14.7437 3.93572 14.7437H5.94137C6.22403 14.7437 6.45288 14.9724 6.45288 15.2547C6.45288 15.5369 6.22379 15.7656 5.94137 15.7656Z" fill="#464646"/>
<path d="M19.0398 15.7656H15.8825C15.5998 15.7656 15.371 15.5369 15.371 15.2547C15.371 14.9724 15.5998 14.7437 15.8825 14.7437H19.0398C19.3225 14.7437 19.5513 14.9724 19.5513 15.2547C19.5513 15.5369 19.3225 15.7656 19.0398 15.7656Z" fill="#464646"/>
<path d="M4.9095 12.0887H0.511277C0.228855 12.0887 2.55427e-08 11.86 2.55427e-08 11.5779C2.55427e-08 11.2954 0.229094 11.0667 0.511277 11.0667H4.90974C5.19216 11.0667 5.42126 11.2954 5.42126 11.5779C5.42102 11.86 5.19193 12.0887 4.9095 12.0887Z" fill="#464646"/>
<path fill-rule="evenodd" clip-rule="evenodd" d="M10.8379 18.4446C10.8379 18.4446 15.5805 15.8236 15.5805 12.5881H15.5807V6.03336L10.8384 5.19373L6.09363 6.03336V12.5881C6.09363 15.8236 10.8379 18.4446 10.8379 18.4446ZM9.87888 12.5256C9.95015 12.5971 10.0472 12.6372 10.1482 12.6372C10.2493 12.6372 10.3462 12.5971 10.4177 12.5256L13.1778 9.76386C13.3263 9.61544 13.3263 9.37404 13.1773 9.22562C13.0288 9.07719 12.7873 9.07743 12.6388 9.2261L10.1482 11.718L9.03592 10.6056C8.88742 10.4572 8.64613 10.457 8.49738 10.6056C8.3484 10.7541 8.3484 10.9952 8.49714 11.1439L9.87888 12.5256Z" fill="#464646"/>
</svg>
